name rise36.2859peak64.2979fall75.1499.mot
datacolumns 19
datarows 21
range 0.92333500000000 0.95666300000000
endheader
time	ground_force1_vx	ground_force1_vy	ground_force1_vz	ground_force1_px	ground_force1_py	ground_force1_pz	ground_force2_vx	ground_force2_vy	ground_force2_vz	ground_force2_px	ground_force2_py	ground_force2_pz	ground_torque1_x	ground_torque1_y	ground_torque1_z	ground_torque2_x	ground_torque2_y	ground_torque2_z	
0.92333500000000	65.31822200000001	729.03117199999997	53.61460400000000	0.39371100000000	0.00000000000000	0.09328800000000	0.00000000000000	0.00000000000000	0.00000000000000	0.00000000000000	0.00000000000000	0.00000000000000	0.00000000000000	29.76495100000000	0.00000000000000	0.00000000000000	0.00000000000000	0.00000000000000	
0.92499400000000	65.06553099999999	733.36221699999999	53.91257900000000	0.39271500000000	0.00000000000000	0.09326000000000	0.00000000000000	0.00000000000000	0.00000000000000	0.00000000000000	0.00000000000000	0.00000000000000	0.00000000000000	29.91063800000000	0.00000000000000	0.00000000000000	0.00000000000000	0.00000000000000	
0.92666700000000	64.80492400000000	737.61834499999998	54.21239100000000	0.39175700000000	0.00000000000000	0.09323200000000	0.00000000000000	0.00000000000000	0.00000000000000	0.00000000000000	0.00000000000000	0.00000000000000	0.00000000000000	30.06092600000000	0.00000000000000	0.00000000000000	0.00000000000000	0.00000000000000	
0.92832600000000	64.53641399999999	741.79406900000004	54.51341000000000	0.39083600000000	0.00000000000000	0.09320200000000	0.00000000000000	0.00000000000000	0.00000000000000	0.00000000000000	0.00000000000000	0.00000000000000	0.00000000000000	30.21543300000000	0.00000000000000	0.00000000000000	0.00000000000000	0.00000000000000	
0.92999300000000	64.25998500000000	745.88389099999995	54.81493700000000	0.38995200000000	0.00000000000000	0.09317100000000	0.00000000000000	0.00000000000000	0.00000000000000	0.00000000000000	0.00000000000000	0.00000000000000	0.00000000000000	30.37371900000000	0.00000000000000	0.00000000000000	0.00000000000000	0.00000000000000	
0.93166800000000	63.97559400000000	749.88233300000002	55.11620900000000	0.38910400000000	0.00000000000000	0.09314000000000	0.00000000000000	0.00000000000000	0.00000000000000	0.00000000000000	0.00000000000000	0.00000000000000	0.00000000000000	30.53529200000000	0.00000000000000	0.00000000000000	0.00000000000000	0.00000000000000	
0.93333200000000	63.68317300000000	753.78395699999999	55.41640600000000	0.38829200000000	0.00000000000000	0.09310700000000	0.00000000000000	0.00000000000000	0.00000000000000	0.00000000000000	0.00000000000000	0.00000000000000	0.00000000000000	30.69961200000000	0.00000000000000	0.00000000000000	0.00000000000000	0.00000000000000	
0.93499800000000	63.38264000000000	757.58339300000000	55.71465900000000	0.38751500000000	0.00000000000000	0.09307300000000	0.00000000000000	0.00000000000000	0.00000000000000	0.00000000000000	0.00000000000000	0.00000000000000	0.00000000000000	30.86609700000000	0.00000000000000	0.00000000000000	0.00000000000000	0.00000000000000	
0.93666400000000	63.07389300000000	761.27535999999998	56.01005800000000	0.38677100000000	0.00000000000000	0.09303800000000	0.00000000000000	0.00000000000000	0.00000000000000	0.00000000000000	0.00000000000000	0.00000000000000	0.00000000000000	31.03412300000000	0.00000000000000	0.00000000000000	0.00000000000000	0.00000000000000	
0.93832700000000	62.75682100000000	764.85469599999999	56.30165600000000	0.38606000000000	0.00000000000000	0.09300200000000	0.00000000000000	0.00000000000000	0.00000000000000	0.00000000000000	0.00000000000000	0.00000000000000	0.00000000000000	31.20303600000000	0.00000000000000	0.00000000000000	0.00000000000000	0.00000000000000	
0.93999600000000	62.43130500000000	768.31637400000000	56.58848100000000	0.38538100000000	0.00000000000000	0.09296400000000	0.00000000000000	0.00000000000000	0.00000000000000	0.00000000000000	0.00000000000000	0.00000000000000	0.00000000000000	31.37215400000000	0.00000000000000	0.00000000000000	0.00000000000000	0.00000000000000	
0.94166900000000	62.09722300000000	771.65553299999999	56.86954100000000	0.38473300000000	0.00000000000000	0.09292400000000	0.00000000000000	0.00000000000000	0.00000000000000	0.00000000000000	0.00000000000000	0.00000000000000	0.00000000000000	31.54076800000000	0.00000000000000	0.00000000000000	0.00000000000000	0.00000000000000	
0.94333500000000	61.75445000000000	774.86749099999997	57.14383300000000	0.38411300000000	0.00000000000000	0.09288400000000	0.00000000000000	0.00000000000000	0.00000000000000	0.00000000000000	0.00000000000000	0.00000000000000	0.00000000000000	31.70815600000000	0.00000000000000	0.00000000000000	0.00000000000000	0.00000000000000	
0.94499600000000	61.40286900000000	777.94777499999998	57.41034800000000	0.38352200000000	0.00000000000000	0.09284100000000	0.00000000000000	0.00000000000000	0.00000000000000	0.00000000000000	0.00000000000000	0.00000000000000	0.00000000000000	31.87357900000000	0.00000000000000	0.00000000000000	0.00000000000000	0.00000000000000	
0.94666300000000	61.04236400000000	780.89213199999995	57.66808300000000	0.38295800000000	0.00000000000000	0.09279700000000	0.00000000000000	0.00000000000000	0.00000000000000	0.00000000000000	0.00000000000000	0.00000000000000	0.00000000000000	32.03629500000000	0.00000000000000	0.00000000000000	0.00000000000000	0.00000000000000	
0.94833400000000	60.67283300000000	783.69655499999999	57.91604400000000	0.38241900000000	0.00000000000000	0.09275200000000	0.00000000000000	0.00000000000000	0.00000000000000	0.00000000000000	0.00000000000000	0.00000000000000	0.00000000000000	32.19555400000000	0.00000000000000	0.00000000000000	0.00000000000000	0.00000000000000	
0.94999500000000	60.29418700000000	786.35729800000001	58.15325300000000	0.38190300000000	0.00000000000000	0.09270400000000	0.00000000000000	0.00000000000000	0.00000000000000	0.00000000000000	0.00000000000000	0.00000000000000	0.00000000000000	32.35061300000000	0.00000000000000	0.00000000000000	0.00000000000000	0.00000000000000	
0.95166100000000	59.90634900000000	788.87089200000003	58.37876000000000	0.38140900000000	0.00000000000000	0.09265600000000	0.00000000000000	0.00000000000000	0.00000000000000	0.00000000000000	0.00000000000000	0.00000000000000	0.00000000000000	32.50073200000000	0.00000000000000	0.00000000000000	0.00000000000000	0.00000000000000	
0.95333200000000	59.50926400000000	791.23416199999997	58.59164200000000	0.38093600000000	0.00000000000000	0.09260500000000	0.00000000000000	0.00000000000000	0.00000000000000	0.00000000000000	0.00000000000000	0.00000000000000	0.00000000000000	32.64518500000000	0.00000000000000	0.00000000000000	0.00000000000000	0.00000000000000	
0.95499700000000	59.10289600000000	793.44423600000005	58.79101700000000	0.38048200000000	0.00000000000000	0.09255200000000	0.00000000000000	0.00000000000000	0.00000000000000	0.00000000000000	0.00000000000000	0.00000000000000	0.00000000000000	32.78326300000000	0.00000000000000	0.00000000000000	0.00000000000000	0.00000000000000	
0.95666300000000	58.68723300000000	795.49856399999999	58.97604200000000	0.38004400000000	0.00000000000000	0.09249800000000	0.00000000000000	0.00000000000000	0.00000000000000	0.00000000000000	0.00000000000000	0.00000000000000	0.00000000000000	32.91427300000000	0.00000000000000	0.00000000000000	0.00000000000000	0.00000000000000	
